<?xml version="1.0" encoding="UTF-8"?>
<svg id="Calque_2" data-name="Calque 2" xmlns="http://www.w3.org/2000/svg" viewBox="0 0 302.18 100.9">
  <g id="Calque_1-2" data-name="Calque 1">
    <g>
      <path d="M144.79,56.33c-2.83,9.36-12.41,24.93-22.97,24.93-9.69,0-16.11-7.29-16.11-21.77,0-15.67,11.1-34.29,24.49-34.29,10.34,0,13.61,10.34,13.61,12.52l-23.95,20.57c.98,9.03,3.92,15.24,7.84,15.24,7.84,0,15.35-18.29,15.35-18.29l1.74,1.09Zm-12.63-12.52c-.54-10.99-5.99-16.22-7.4-15.24-1.96,1.2-5.33,4.79-5.33,22.2,0,1.74,.11,3.37,.22,4.9l12.52-11.86Z" style="fill: #f4f4f4;"/>
      <path d="M179.08,39.56c-1.52,.65-10.78,22.75-10.78,33.74l.87,6.64h-13.39V41.2l-7.4-8.38,19.92-7.29V60.14c3.16-12.19,8.49-25.91,14.91-35.05h1.42l9.14,17.96-.33,.44-14.37-3.92Z" style="fill: #f4f4f4;"/>
      <path d="M221.75,79.95h-20.57V41.2l-7.4-8.38,19.92-7.29v45.06l8.05,9.36Zm-14.91-59.43l-9.14-10.12L206.84,.38l9.03,10.01-9.03,10.12Z" style="fill: #f4f4f4;"/>
      <path d="M264.52,56.33c-2.83,9.36-12.41,24.93-22.97,24.93-9.69,0-16.11-7.29-16.11-21.77,0-15.67,11.1-34.29,24.49-34.29,10.34,0,13.61,10.34,13.61,12.52l-23.95,20.57c.98,9.03,3.92,15.24,7.84,15.24,7.84,0,15.35-18.29,15.35-18.29l1.74,1.09Zm-12.63-12.52c-.54-10.99-5.99-16.22-7.4-15.24-1.96,1.2-5.33,4.79-5.33,22.2,0,1.74,.11,3.37,.22,4.9l12.52-11.86Z" style="fill: #f4f4f4;"/>
      <path d="M298.59,42.83c-4.14-6.42-9.58-10.99-14.37-10.99-3.05,0-3.81,1.42-3.81,4.14,0,7.62,21.77,16.11,21.77,27.65,0,7.18-6.1,16.33-20.14,16.33h-8.92l-2.61-18.5,.33-.98c5.88,8.6,11.43,15.35,17.74,15.35,3.27,0,5.01-1.42,5.01-4.35,0-10.67-21.44-16.11-21.44-27.97,0-7.73,6.86-16.87,18.83-16.87h7.73l.54,16.11-.65,.11Z" style="fill: #f4f4f4;"/>
    </g>
    <path d="M50.45,0C22.59,0,0,22.59,0,50.45s22.59,50.45,50.45,50.45,50.45-22.59,50.45-50.45S78.31,0,50.45,0Zm0,91.93c-22.91,0-41.48-18.57-41.48-41.48S27.54,8.97,50.45,8.97s41.48,18.57,41.48,41.48-18.57,41.48-41.48,41.48Z" style="fill: #f4f4f4;"/>
    <path d="M61.09,79.24h0s-36.43,.01-36.43,.01V21.65H57.86c15.4,0,23.62,5.22,23.62,15.12,0,8.71-5.82,12.18-15.2,13.4,9.8,.69,17.38,3.23,17.38,12.69,0,10.99-9.15,16.09-22.57,16.38ZM36.51,31.6v15.62h21.1c7.46,0,11.52-2.8,11.52-8.22s-4.26-7.4-10.91-7.4h-21.71Zm35.01,29.98c0-6.16-5.9-7.58-12.75-7.58h-22.27v15.25h23.49c7.46,0,11.52-2.3,11.52-7.67Z" style="fill: #f4f4f4;"/>
  </g>
</svg>